Patient4_TMGait_0pt2_02_left_21_GRF.mot
version=1
nRows=64
nColumns=19
inDegrees=no
endheader
time	F1x	F1y	F1z	M1x	M1y	M1z	F2x	F2y	F2z	M2x	M2y	M2z	EC1x	EC1y	EC1z	EC2x	EC2y	EC2z
47.55	-1.6228	1.2441	-0.66764	-0.45216	0.72523	0.75072	-2.8412	708.4603	-35.7959	246.4465	44.9171	815.0139	-0.0592	0.0182	-0.0073	-0.0462	0.0165	0.9585
47.5709	-1.1027	0.64875	-0.52339	-0.25479	0.56364	0.21115	-4.5425	735.5089	-35.9631	255.6746	45.548	846.6787	-0.0592	0.0182	-0.0073	-0.0462	0.0165	0.9585
47.5919	-0.66935	0.16849	-0.38792	-0.09374	0.41348	-0.22027	-6.6262	767.4775	-35.8935	266.6733	45.9891	883.9622	-0.0592	0.0182	-0.0073	-0.0462	0.0165	0.9585
47.6128	-0.3434	-0.17328	-0.27169	0.019734	0.28331	-0.52168	-8.8952	801.8637	-35.5502	278.5758	46.1286	923.8687	-0.0592	0.0182	-0.0073	-0.0462	0.0165	0.9585
47.6337	-0.12065	-0.3866	-0.17968	0.087536	0.17677	-0.70584	-11.1047	835.2286	-34.9467	290.1618	45.8925	962.3574	-0.0592	0.0182	-0.0073	-0.0462	0.0165	0.9585
47.6546	0.013891	-0.49897	-0.11138	0.11981	0.094855	-0.80096	-13.0173	863.8292	-34.1317	300.0824	45.2445	995.1062	-0.0592	0.0182	-0.0073	-0.0462	0.0165	0.9585
47.6756	0.076054	-0.55162	-0.06161	0.13054	0.033425	-0.8466	-14.4463	884.2925	-33.1717	307.105	44.1908	1018.2972	-0.0592	0.0182	-0.0073	-0.0462	0.0165	0.9585
47.6965	0.081828	-0.59611	-0.023396	0.13521	-0.014387	-0.8944	-15.2698	894.163	-32.1511	310.3148	42.7903	1029.2248	-0.0592	0.0182	-0.0073	-0.0462	0.0165	0.9585
47.7174	0.048863	-0.68043	0.0073965	0.14927	-0.054585	-1.0039	-15.4333	892.2877	-31.1733	309.2611	41.1577	1026.7027	-0.0592	0.0182	-0.0073	-0.0462	0.0165	0.9585
47.7384	-0.0049585	-0.84118	0.030966	0.18874	-0.090986	-1.2277	-14.9483	878.9918	-30.3568	304.0297	39.4563	1011.2252	-0.0592	0.0182	-0.0073	-0.0462	0.0165	0.9585
47.7593	-0.061656	-1.1123	0.044738	0.2719	-0.12082	-1.6056	-13.86	855.9905	-29.8284	295.2196	37.8796	984.823	-0.0592	0.0182	-0.0073	-0.0462	0.0165	0.9585
47.7802	-0.10652	-1.5337	0.046018	0.41631	-0.13837	-2.1838	-12.2112	826.1186	-29.7014	283.8512	36.6057	950.7194	-0.0592	0.0182	-0.0073	-0.0462	0.0165	0.9585
47.8011	-0.13067	-2.1363	0.032303	0.63332	-0.13445	-2.9971	-10.0566	792.9151	-30.0424	271.2156	35.7585	912.863	-0.0592	0.0182	-0.0073	-0.0462	0.0165	0.9585
47.8221	-0.11991	-2.9229	0.0014594	0.92279	-0.097572	-4.0397	-7.5017	760.0668	-30.8464	258.6717	35.3935	875.3202	-0.0592	0.0182	-0.0073	-0.0462	0.0165	0.9585
47.843	-0.055065	-3.8402	-0.04987	1.2644	-0.01565	-5.233	-4.7112	730.8853	-32.0447	247.4528	35.5057	841.7191	-0.0592	0.0182	-0.0073	-0.0462	0.0165	0.9585
47.8639	0.086545	-4.7474	-0.12313	1.6074	0.12242	-6.389	-1.8815	707.886	-33.519	238.5107	36.0346	814.7919	-0.0592	0.0182	-0.0073	-0.0462	0.0165	0.9585
47.8849	0.32834	-5.3846	-0.21859	1.8594	0.32925	-7.1653	0.82485	692.6044	-35.1247	232.4424	36.8686	796.1726	-0.0592	0.0182	-0.0073	-0.0462	0.0165	0.9585
47.9058	0.68688	-5.3415	-0.33465	1.874	0.61251	-7.0228	3.331	685.5791	-36.7338	229.4765	37.8739	786.383	-0.0592	0.0182	-0.0073	-0.0462	0.0165	0.9585
47.9267	1.1655	-4.0404	-0.46455	1.441	0.96293	-5.2021	5.6364	686.4224	-38.2581	229.4953	38.9292	784.9253	-0.0592	0.0182	-0.0073	-0.0462	0.0165	0.9585
47.9476	1.7422	-0.74111	-0.59046	0.28562	1.3437	-0.74195	7.797	693.9566	-39.6396	232.0838	39.9239	790.4407	-0.0592	0.0182	-0.0073	-0.0462	0.0165	0.9585
47.9686	2.3513	5.4112	-0.67691	-1.9121	1.6781	7.4446	9.9073	706.3636	-40.8377	236.5863	40.7508	800.8979	-0.0592	0.0182	-0.0073	-0.0462	0.0165	0.9585
47.9895	2.864	15.2591	-0.66251	-5.4727	1.8355	20.4137	12.0429	721.2297	-41.8224	242.1245	41.3211	813.6811	-0.0592	0.0182	-0.0073	-0.0462	0.0165	0.9585
48.0104	3.0662	29.4021	-0.4595	-10.6353	1.6256	38.8851	14.156	735.5633	-42.5598	247.6067	41.5857	825.634	-0.0592	0.0182	-0.0073	-0.0462	0.0165	0.9585
48.0314	2.7387	47.9529	0.051535	-17.4609	0.8126	62.9323	16.0285	746.0329	-43.0029	251.8157	41.5487	833.3337	-0.0592	0.0182	-0.0073	-0.0462	0.0165	0.9585
48.0523	1.7356	70.2773	1.016	-25.7269	-0.84584	91.6669	17.3273	749.3907	-43.1103	253.5621	41.2717	833.5114	-0.0592	0.0182	-0.0073	-0.0462	0.0165	0.9585
48.0732	0.091651	94.7294	2.5148	-34.8232	-3.4338	122.9268	17.7636	743.0519	-42.8633	251.8971	40.8355	823.597	-0.0592	0.0182	-0.0073	-0.0462	0.0165	0.9585
48.0941	-1.827	118.9761	4.524	-43.8758	-6.7671	153.6882	17.298	725.9341	-42.2634	246.4141	40.2676	802.5366	-0.0592	0.0182	-0.0073	-0.0462	0.0165	0.9585
48.1151	-3.5733	141.7044	6.8327	-52.3917	-10.397	182.2475	16.2104	699.0934	-41.358	237.4688	39.5449	771.4476	-0.0592	0.0182	-0.0073	-0.0462	0.0165	0.9585
48.136	-5.0213	163.6807	9.1984	-60.6534	-13.9737	209.6089	14.9345	665.3096	-40.2464	226.0314	38.6473	733.223	-0.0592	0.0182	-0.0073	-0.0462	0.0165	0.9585
48.1569	-6.2904	186.5825	11.5104	-69.2753	-17.414	237.9719	13.8132	627.9023	-39.0054	213.2741	37.5587	691.3264	-0.0592	0.0182	-0.0073	-0.0462	0.0165	0.9585
48.1779	-7.5576	211.6939	13.777	-78.7195	-20.8072	269.0242	12.9883	589.6579	-37.6731	200.1892	36.2904	648.6837	-0.0592	0.0182	-0.0073	-0.0462	0.0165	0.9585
48.1988	-8.9215	239.4767	16.0754	-89.1387	-24.2955	303.3818	12.4441	552.3059	-36.2905	187.3965	34.904	607.1184	-0.0592	0.0182	-0.0073	-0.0462	0.0165	0.9585
48.2197	-10.3972	269.67	18.5016	-100.4165	-28.0075	340.7133	12.1105	516.4549	-34.8923	175.1217	33.4677	567.2649	-0.0592	0.0182	-0.0073	-0.0462	0.0165	0.9585
48.2406	-11.9561	301.6157	21.1147	-112.2941	-31.9979	380.1403	11.9436	481.8389	-33.4693	163.2843	31.9885	528.8194	-0.0592	0.0182	-0.0073	-0.0462	0.0165	0.9585
48.2616	-13.5326	334.6887	23.896	-124.536	-36.2039	420.7793	11.9574	447.7208	-31.9637	151.6368	30.3951	490.9741	-0.0592	0.0182	-0.0073	-0.0462	0.0165	0.9585
48.2825	-15.0183	368.5446	26.7627	-137.0215	-40.4687	462.0719	12.2278	413.2415	-30.299	139.885	28.5735	452.7931	-0.0592	0.0182	-0.0073	-0.0462	0.0165	0.9585
48.3034	-16.2784	403.0174	29.6293	-149.7029	-44.6239	503.6805	12.8752	377.684	-28.417	127.7808	26.4103	413.4963	-0.0592	0.0182	-0.0073	-0.0462	0.0165	0.9585
48.3244	-17.1856	437.8823	32.4326	-162.5167	-48.5333	545.2252	14.0077	340.6814	-26.2946	115.1959	23.8289	372.6839	-0.0592	0.0182	-0.0073	-0.0462	0.0165	0.9585
48.3453	-17.6361	472.7526	35.0927	-175.346	-52.0523	586.1903	15.6462	302.3279	-23.9316	102.1621	20.8079	330.4681	-0.0592	0.0182	-0.0073	-0.0462	0.0165	0.9585
48.3662	-17.5644	507.0927	37.4675	-188.0247	-54.981	625.9573	17.6761	263.1482	-21.3374	88.8601	17.3882	287.44	-0.0592	0.0182	-0.0073	-0.0462	0.0165	0.9585
48.3871	-16.9611	540.2612	39.3744	-200.3459	-57.0999	663.8449	19.8475	223.9752	-18.5428	75.5771	13.6844	244.5227	-0.0592	0.0182	-0.0073	-0.0462	0.0165	0.9585
48.4081	-15.8818	571.5921	40.6731	-212.0819	-58.2685	699.1779	21.804	185.8451	-15.6265	62.6664	9.9014	202.8463	-0.0592	0.0182	-0.0073	-0.0462	0.0165	0.9585
48.429	-14.4373	600.5136	41.3524	-223.0185	-58.5212	731.4063	23.1437	149.8857	-12.7124	50.5094	6.3099	163.6266	-0.0592	0.0182	-0.0073	-0.0462	0.0165	0.9585
48.4499	-12.7905	626.6476	41.5511	-232.9827	-58.0862	760.2162	23.5387	117.1281	-9.9375	39.451	3.1717	127.9641	-0.0592	0.0182	-0.0073	-0.0462	0.0165	0.9585
48.4709	-11.1586	649.8153	41.5153	-241.8527	-57.3333	785.5426	22.8277	88.3163	-7.4275	29.7375	0.67979	96.6353	-0.0592	0.0182	-0.0073	-0.0462	0.0165	0.9585
48.4918	-9.7834	670.0026	41.513	-249.5651	-56.6682	807.5206	21.0177	63.8358	-5.2793	21.4928	-1.0632	70.0209	-0.0592	0.0182	-0.0073	-0.0462	0.0165	0.9585
48.5127	-8.8775	687.3651	41.7476	-256.1311	-56.4163	826.4696	18.2442	43.7357	-3.5332	14.7285	-2.0575	48.1477	-0.0592	0.0182	-0.0073	-0.0462	0.0165	0.9585
48.5336	-8.5701	702.2276	42.3455	-261.6358	-56.7865	842.8696	14.7563	27.8349	-2.1795	9.3813	-2.3918	30.8144	-0.0592	0.0182	-0.0073	-0.0462	0.0165	0.9585
48.5546	-8.8815	715.049	43.3768	-266.2253	-57.8821	857.3101	10.9201	15.8259	-1.1856	5.3462	-2.2156	17.6974	-0.0592	0.0182	-0.0073	-0.0462	0.0165	0.9585
48.5755	-9.7589	726.5285	44.853	-270.1486	-59.7048	870.6088	7.1751	7.3107	-0.50701	2.4877	-1.7175	8.3777	-0.0592	0.0182	-0.0073	-0.0462	0.0165	0.9585
48.5964	-11.1077	737.7853	46.716	-273.8303	-62.1514	884.0203	3.9246	1.7911	-0.090629	0.63676	-1.0895	2.3215	-0.0592	0.0182	-0.0073	-0.0462	0.0165	0.9585
48.6174	-12.8025	750.3506	48.8547	-277.8663	-65.0362	899.2275	1.3931	-1.3392	0.12499	-0.41169	-0.47728	-1.1275	-0.0592	0.0182	-0.0073	-0.0462	0.0165	0.9585
48.6383	-14.6712	765.8557	51.1274	-282.905	-68.1114	917.9692	-0.3947	-2.7325	0.19931	-0.8771	0.040874	-2.6757	-0.0592	0.0182	-0.0073	-0.0462	0.0165	0.9585
48.6592	-16.4436	785.4023	53.3914	-289.4062	-71.0903	941.3052	-1.5306	-2.9819	0.18617	-0.95899	0.43444	-2.9666	-0.0592	0.0182	-0.0073	-0.0462	0.0165	0.9585
48.6801	-17.786	808.854	55.5276	-297.3679	-73.6976	968.8127	-2.1564	-2.5651	0.12757	-0.81773	0.70316	-2.5187	-0.0592	0.0182	-0.0073	-0.0462	0.0165	0.9585
48.7011	-18.4036	834.4721	57.4347	-306.1905	-75.7	998.2148	-2.4248	-1.8324	0.050769	-0.57054	0.86746	-1.7132	-0.0592	0.0182	-0.0073	-0.0462	0.0165	0.9585
48.722	-18.0971	859.1517	59.0029	-314.7673	-76.8948	1025.6995	-2.4706	-1.0225	-0.027697	-0.29763	0.95658	-0.81348	-0.0592	0.0182	-0.0073	-0.0462	0.0165	0.9585
48.7429	-16.7719	879.2233	60.0839	-321.7797	-77.0723	1046.8675	-2.3985	-0.28845	-0.098183	-0.050338	0.99706	0.0074441	-0.0592	0.0182	-0.0073	-0.0462	0.0165	0.9585
48.7639	-14.4339	891.4056	60.5178	-326.0445	-76.0436	1057.8526	-2.2842	0.27992	-0.15415	0.14071	1.0083	0.64138	-0.0592	0.0182	-0.0073	-0.0462	0.0165	0.9585
48.7848	-11.1617	893.5915	60.1783	-326.8029	-73.6847	1056.2461	-2.177	0.62833	-0.19227	0.25674	1.0012	1.0177	-0.0592	0.0182	-0.0073	-0.0462	0.0165	0.9585
48.8057	-7.0796	885.2754	59.0146	-323.8748	-69.9791	1041.5836	-2.0995	0.71811	-0.21052	0.28363	0.97918	1.0857	-0.0592	0.0182	-0.0073	-0.0462	0.0165	0.9585
48.8266	-2.3131	867.6059	57.0832	-317.6698	-65.0463	1015.3739	-2.0556	0.51299	-0.20517	0.2066	0.94134	0.79247	-0.0592	0.0182	-0.0073	-0.0462	0.0165	0.9585
48.8476	3.0304	843.0662	54.5603	-309.0703	-59.1511	980.7139	-2.0334	-0.021558	-0.17099	0.011187	0.87962	0.084888	-0.0592	0.0182	-0.0073	-0.0462	0.0165	0.9585
48.8685	8.846	814.9093	51.7119	-299.2263	-52.6686	941.6082	-2.0102	-0.9144	-0.10671	-0.31302	0.78289	-1.0808	-0.0592	0.0182	-0.0073	-0.0462	0.0165	0.9585
